<?xml version="1.0" standalone="no"?>
<!DOCTYPE svg PUBLIC "-//W3C//DTD SVG 20010904//EN"
 "http://www.w3.org/TR/2001/REC-SVG-20010904/DTD/svg10.dtd">
<svg version="1.0" xmlns="http://www.w3.org/2000/svg"
 width="775.000000pt" height="272.000000pt" viewBox="0 0 775.000000 272.000000"
 preserveAspectRatio="xMidYMid meet">

<g transform="translate(0.000000,272.000000) scale(0.100000,-0.100000)"
fill="#000000" stroke="none">
<path d="M2500 2530 c-186 -26 -348 -98 -450 -200 -109 -108 -160 -232 -160
-385 0 -250 124 -404 411 -512 47 -17 193 -60 325 -93 131 -34 274 -75 317
-92 152 -58 250 -147 278 -251 17 -64 6 -183 -22 -242 -49 -104 -174 -186
-334 -221 -110 -23 -321 -23 -440 0 -165 32 -331 105 -453 198 -29 23 -54 39
-56 37 -9 -10 -76 -149 -76 -158 0 -16 121 -102 202 -142 369 -186 894 -181
1173 11 169 117 254 313 225 520 -27 201 -166 344 -420 435 -41 14 -172 51
-290 81 -335 86 -432 124 -523 204 -141 124 -133 362 16 496 99 89 212 124
417 131 215 8 388 -31 569 -128 40 -22 75 -38 76 -37 7 8 65 154 65 163 0 33
-207 124 -369 161 -119 28 -363 40 -481 24z"/>
<path d="M322 2428 l3 -93 398 -3 397 -2 0 -713 c0 -768 -2 -788 -54 -902 -31
-68 -94 -130 -164 -163 -44 -20 -77 -26 -155 -30 -116 -6 -185 7 -277 52 -62
30 -175 128 -214 186 l-17 25 -35 -40 c-19 -22 -49 -57 -66 -78 l-30 -38 89
-88 c73 -72 106 -97 174 -129 125 -60 201 -76 349 -76 320 1 512 137 593 421
21 77 22 87 25 921 l3 842 -511 0 -511 0 3 -92z"/>
<path d="M4130 2255 l0 -25 135 0 135 0 0 -252 c0 -227 -2 -257 -19 -295 -23
-50 -62 -73 -125 -73 -57 0 -93 14 -132 51 l-30 29 -19 -20 c-18 -20 -18 -21
6 -46 36 -39 96 -66 160 -71 80 -8 154 28 190 89 24 43 24 46 27 341 l3 297
-165 0 -166 0 0 -25z"/>
<path d="M5013 2266 c-125 -31 -316 -147 -412 -251 -58 -63 -56 -91 12 -159
134 -134 299 -222 470 -250 192 -32 426 59 611 238 85 81 87 104 19 177 -103
110 -274 213 -406 244 -75 18 -223 18 -294 1z m317 -74 c79 -28 146 -63 216
-114 72 -54 144 -121 144 -135 0 -17 -92 -101 -166 -153 -127 -88 -295 -139
-409 -125 -156 20 -327 108 -445 229 -54 56 -54 56 60 148 92 75 214 140 305
163 78 19 220 13 295 -13z"/>
<path d="M5070 2088 c-43 -29 -68 -65 -76 -105 -6 -32 -6 -33 30 -33 28 0 36
4 36 18 1 38 56 82 105 82 50 0 105 -57 105 -110 0 -34 -31 -78 -67 -95 -26
-13 -33 -22 -33 -45 0 -36 15 -38 69 -10 123 62 128 218 11 298 -25 16 -47 22
-90 22 -43 0 -65 -6 -90 -22z"/>
<path d="M5067 1897 c-79 -74 -93 -101 -56 -112 22 -7 31 -1 136 99 43 41 50
53 42 68 -17 31 -41 20 -122 -55z"/>
<path d="M5822 1038 c-19 -19 -14 -55 10 -72 19 -13 25 -14 43 -2 26 17 31 49
10 70 -19 19 -46 21 -63 4z"/>
<path d="M4290 1001 c-113 -37 -173 -120 -156 -219 11 -72 68 -121 178 -152
37 -11 99 -29 137 -40 95 -27 131 -62 131 -125 0 -40 -5 -52 -33 -80 -44 -44
-102 -59 -201 -52 -65 4 -92 12 -147 40 l-67 35 -11 -24 c-10 -22 -7 -26 27
-49 65 -43 120 -58 222 -59 116 -1 173 18 224 74 42 46 50 74 44 139 -9 93
-67 137 -243 181 -161 41 -211 80 -202 158 9 82 75 122 202 122 61 0 94 -6
138 -24 55 -23 58 -23 67 -6 16 31 12 36 -42 60 -57 24 -220 37 -268 21z"/>
<path d="M6830 885 l0 -65 -45 0 c-41 0 -45 -2 -45 -25 0 -23 4 -25 43 -25
l44 0 6 -107 c4 -58 7 -146 7 -196 0 -111 15 -148 74 -177 47 -22 74 -25 126
-10 56 16 64 24 51 49 -10 17 -16 19 -31 11 -28 -15 -98 -12 -125 6 -14 9 -29
32 -35 53 -11 39 -14 290 -4 340 l7 31 78 0 c78 0 79 0 79 25 0 25 -1 25 -80
25 l-80 0 0 65 0 65 -35 0 -35 0 0 -65z"/>
<path d="M4957 816 c-85 -25 -146 -81 -177 -163 -82 -220 111 -434 334 -369
34 10 72 30 94 50 31 29 34 36 23 50 -17 21 -35 20 -52 -1 -40 -48 -156 -67
-227 -37 -176 73 -176 335 0 408 74 31 173 14 229 -40 l26 -24 18 20 c18 20
18 21 -5 45 -56 59 -173 86 -263 61z"/>
<path d="M5614 820 c-42 -9 -102 -47 -114 -71 -18 -32 -30 -21 -30 26 0 43 -1
45 -30 45 l-30 0 0 -270 0 -270 30 0 30 0 1 168 c1 167 6 203 40 250 22 31 86
62 126 62 31 0 33 2 33 35 0 37 -3 38 -56 25z"/>
<path d="M6302 811 c-29 -10 -68 -32 -86 -50 -38 -37 -46 -38 -46 -8 0 46 -12
67 -36 67 l-24 0 0 -375 0 -375 30 0 30 0 0 150 c0 83 4 150 8 150 5 0 19 -12
33 -26 112 -120 330 -83 412 70 32 59 32 213 0 271 -36 68 -97 114 -175 133
-62 16 -83 15 -146 -7z m199 -77 c61 -41 89 -100 89 -184 0 -85 -28 -143 -91
-185 -39 -27 -52 -30 -119 -30 -67 0 -80 3 -119 30 -62 42 -91 100 -91 183 0
79 26 140 75 178 47 35 80 44 152 40 47 -3 71 -10 104 -32z"/>
<path d="M7328 816 c-90 -24 -130 -67 -130 -141 0 -88 43 -122 195 -154 128
-27 152 -43 152 -101 0 -35 -5 -47 -28 -64 -42 -31 -191 -30 -261 2 -50 23
-76 18 -76 -14 0 -36 158 -81 249 -70 115 14 181 68 181 149 0 81 -51 123
-175 147 -107 20 -154 40 -169 68 -26 52 -1 102 62 123 45 15 160 7 203 -15
32 -16 34 -16 46 1 7 9 13 20 13 25 0 14 -54 36 -115 47 -72 13 -87 13 -147
-3z"/>
<path d="M5820 550 l0 -270 30 0 30 0 0 270 0 270 -30 0 -30 0 0 -270z"/>
</g>
</svg>
